<svg xmlns="http://www.w3.org/2000/svg" version="1.1" xmlns:xlink="http://www.w3.org/1999/xlink" xmlns:svgjs="http://svgjs.dev/svgjs" viewBox="0 0 84.6885175311324 50.95549827025138"><g transform="matrix(0.818441706440666,0,0,0.818441706440666,40.92159013077751,41.620623902782)"><rect width="95.99218551458105" height="95.99218551458105" x="-46.25782768160693" y="-67.7200079006919" fill="#ffffff"></rect><g transform="matrix(1,0,0,1,0,0)" clip-path="url(#SvgjsClipPath26151)"><g clip-path="url(#SvgjsClipPath26146e0cc42dc-5aa6-48f4-b6ca-b8d03d4d8d2a)"><path d=" M -6.127551718312386 -39.54983028680274 L 21.545680219084957 -39.54983028680274 L -7.280927760760939 -12.923468946492704 L -34.954159698158286 -12.923468946492704 Z" fill="#000000" transform="matrix(1,0,0,1,0,0)" fill-rule="nonzero"></path></g><g clip-path="url(#SvgjsClipPath26146e0cc42dc-5aa6-48f4-b6ca-b8d03d4d8d2a)"><path d=" M 10.757457912128132 -26.561361340310036 L 38.43068984952547 -26.561361340310036 L 9.604081869679568 0.06499999999999773 L -18.069150067717775 0.06499999999999773 Z" fill="#3361e1" transform="matrix(1,0,0,1,0,0)" fill-rule="nonzero"></path></g></g><g><path d=" M 0.03375 0.1005 L 0.03375 0.0981 L 0.04725000000000001 0.0921 L 0.04725000000000001 0.0543 L 0.014100000000000001 0.009149999999999991 L 0.0046500000000000005 0.0039000000000000007 L 0.0046500000000000005 0.0015000000000000013 L 0.04335000000000001 0.0015000000000000013 L 0.04335000000000001 0.0039000000000000007 L 0.032400000000000005 0.009300000000000003 L 0.032400000000000005 0.009899999999999992 L 0.05895 0.04605 L 0.08295000000000001 0.010050000000000003 L 0.08295000000000001 0.00945 L 0.07185000000000001 0.0039000000000000007 L 0.07185000000000001 0.0015000000000000013 L 0.10425000000000001 0.0015000000000000013 L 0.10425000000000001 0.0039000000000000007 L 0.09450000000000001 0.008849999999999997 L 0.06285 0.054150000000000004 L 0.06285 0.0921 L 0.07635 0.0981 L 0.07635 0.1005 L 0.03375 0.1005 M 0.26834824218750003 0.10200000000000001 Q 0.25754824218750005 0.10200000000000001 0.24832324218750002 0.09817500000000001 Q 0.23909824218750003 0.09435 0.23227324218750003 0.087525 Q 0.22544824218750004 0.08070000000000001 0.22169824218750003 0.0714 Q 0.21794824218750003 0.0621 0.21794824218750003 0.051000000000000004 Q 0.21794824218750003 0.0399 0.22169824218750003 0.030600000000000002 Q 0.22544824218750004 0.0213 0.23227324218750003 0.014475000000000002 Q 0.23909824218750003 0.007650000000000004 0.24832324218750002 0.003824999999999995 Q 0.25754824218750005 0 0.26834824218750003 0 Q 0.2791482421875 0 0.28837324218750005 0.003824999999999995 Q 0.29759824218750003 0.007650000000000004 0.30442324218750005 0.014475000000000002 Q 0.3112482421875 0.0213 0.31507324218750005 0.030600000000000002 Q 0.3188982421875 0.0399 0.3188982421875 0.051000000000000004 Q 0.3188982421875 0.0621 0.31507324218750005 0.0714 Q 0.3112482421875 0.08070000000000001 0.30442324218750005 0.087525 Q 0.29759824218750003 0.09435 0.28837324218750005 0.09817500000000001 Q 0.2791482421875 0.10200000000000001 0.26834824218750003 0.10200000000000001 M 0.27134824218750003 0.0945 Q 0.2804982421875 0.0945 0.28739824218750004 0.0897 Q 0.2942982421875 0.0849 0.2981982421875 0.0762 Q 0.30209824218750003 0.0675 0.30209824218750003 0.055650000000000005 Q 0.30209824218750003 0.0411 0.2972982421875 0.030225000000000002 Q 0.29249824218750003 0.019349999999999992 0.2842482421875 0.01335 Q 0.2759982421875 0.007349999999999995 0.2659482421875 0.007349999999999995 Q 0.2567982421875 0.007349999999999995 0.24974824218750002 0.012075000000000002 Q 0.24269824218750002 0.016799999999999995 0.23872324218750002 0.025499999999999995 Q 0.2347482421875 0.034199999999999994 0.2347482421875 0.04605 Q 0.2347482421875 0.0606 0.23962324218750003 0.07155 Q 0.24449824218750002 0.0825 0.2528232421875 0.08850000000000001 Q 0.26114824218750005 0.0945 0.27134824218750003 0.0945 M 0.49364919433593757 0.10200000000000001 Q 0.48209919433593756 0.10200000000000001 0.4729491943359376 0.09780000000000001 Q 0.4637991943359375 0.0936 0.45862419433593754 0.08460000000000001 Q 0.45344919433593756 0.0756 0.45344919433593756 0.06105 L 0.45344919433593756 0.009899999999999992 L 0.44129919433593756 0.0039000000000000007 L 0.44129919433593756 0.0015000000000000013 L 0.48134919433593754 0.0015000000000000013 L 0.48134919433593754 0.0039000000000000007 L 0.46919919433593754 0.009899999999999992 L 0.46919919433593754 0.0594 Q 0.46919919433593754 0.07185 0.47309919433593756 0.079125 Q 0.47699919433593757 0.0864 0.48359919433593757 0.08955 Q 0.49019919433593756 0.0927 0.49844919433593754 0.0927 Q 0.5050491943359375 0.0927 0.5106741943359375 0.089925 Q 0.5162991943359375 0.08715 0.5196741943359375 0.080925 Q 0.5230491943359376 0.0747 0.5230491943359376 0.06465000000000001 L 0.5230491943359376 0.009599999999999997 L 0.5083491943359375 0.0039000000000000007 L 0.5083491943359375 0.0015000000000000013 L 0.5456991943359376 0.0015000000000000013 L 0.5456991943359376 0.0039000000000000007 L 0.5335491943359376 0.009749999999999995 L 0.5335491943359376 0.06105 Q 0.5335491943359376 0.0756 0.5283741943359376 0.08460000000000001 Q 0.5231991943359375 0.0936 0.5141991943359375 0.09780000000000001 Q 0.5051991943359375 0.10200000000000001 0.49364919433593757 0.10200000000000001 M 0.6686960449218751 0.1005 L 0.6686960449218751 0.0981 L 0.6808460449218751 0.0921 L 0.6808460449218751 0.009899999999999992 L 0.6686960449218751 0.0039000000000000007 L 0.6686960449218751 0.0015000000000000013 L 0.710396044921875 0.0015000000000000013 Q 0.7261460449218751 0.0015000000000000013 0.735221044921875 0.00802499999999999 Q 0.7442960449218751 0.014549999999999993 0.7442960449218751 0.02595 Q 0.7442960449218751 0.034350000000000006 0.738596044921875 0.0408 Q 0.7328960449218751 0.04725 0.723596044921875 0.0507 L 0.7519460449218751 0.09255000000000001 L 0.7619960449218751 0.0981 L 0.7619960449218751 0.1005 L 0.7378460449218751 0.1005 L 0.7090460449218751 0.054900000000000004 L 0.6965960449218751 0.054900000000000004 L 0.6965960449218751 0.09195 L 0.7078460449218751 0.0981 L 0.7078460449218751 0.1005 L 0.6686960449218751 0.1005 M 0.705446044921875 0.009749999999999995 L 0.6965960449218751 0.009749999999999995 L 0.6965960449218751 0.04695 L 0.706346044921875 0.04695 Q 0.7156460449218751 0.04695 0.721721044921875 0.041625 Q 0.7277960449218751 0.0363 0.7277960449218751 0.028050000000000005 Q 0.7277960449218751 0.019500000000000003 0.721871044921875 0.014624999999999999 Q 0.7159460449218751 0.009749999999999995 0.705446044921875 0.009749999999999995 M 1.0687463378906252 0.10200000000000001 Q 1.0532963378906253 0.10200000000000001 1.0420463378906253 0.09570000000000001 Q 1.030796337890625 0.08940000000000001 1.0246463378906252 0.07845 Q 1.018496337890625 0.0675 1.018496337890625 0.05355 Q 1.018496337890625 0.04275 1.022696337890625 0.03315 Q 1.0268963378906253 0.02355 1.0341713378906252 0.016049999999999995 Q 1.0414463378906251 0.008550000000000002 1.050896337890625 0.004275000000000001 Q 1.0603463378906253 0 1.070996337890625 0 Q 1.0786463378906253 0 1.0838963378906252 0.0009750000000000036 Q 1.0891463378906252 0.0019499999999999934 1.0932713378906251 0.0035250000000000004 Q 1.097396337890625 0.005099999999999993 1.1015963378906253 0.007199999999999998 L 1.1024963378906252 0.0339 L 1.0997963378906253 0.0339 L 1.0894463378906252 0.014399999999999996 Q 1.0843463378906253 0.010800000000000004 1.0802213378906251 0.009149999999999991 Q 1.0760963378906252 0.007499999999999993 1.070996337890625 0.007499999999999993 Q 1.0606463378906252 0.007499999999999993 1.0523963378906251 0.012899999999999995 Q 1.0441463378906253 0.018299999999999997 1.0394213378906252 0.027825000000000003 Q 1.034696337890625 0.037349999999999994 1.034696337890625 0.049800000000000004 Q 1.034696337890625 0.06375 1.039271337890625 0.073725 Q 1.043846337890625 0.0837 1.0516463378906251 0.08895 Q 1.0594463378906251 0.0942 1.068896337890625 0.0942 Q 1.0766963378906251 0.0942 1.0820213378906252 0.0921 Q 1.0873463378906252 0.09000000000000001 1.0915463378906252 0.08715 L 1.1015963378906253 0.07035 L 1.104146337890625 0.07035 L 1.102346337890625 0.0945 Q 1.0957463378906251 0.09780000000000001 1.088246337890625 0.0999 Q 1.0807463378906252 0.10200000000000001 1.0687463378906252 0.10200000000000001 M 1.2821940673828127 0.10200000000000001 Q 1.2713940673828128 0.10200000000000001 1.2621690673828128 0.09817500000000001 Q 1.2529440673828127 0.09435 1.2461190673828129 0.087525 Q 1.2392940673828128 0.08070000000000001 1.2355440673828129 0.0714 Q 1.2317940673828127 0.0621 1.2317940673828127 0.051000000000000004 Q 1.2317940673828127 0.0399 1.2355440673828129 0.030600000000000002 Q 1.2392940673828128 0.0213 1.2461190673828129 0.014475000000000002 Q 1.2529440673828127 0.007650000000000004 1.2621690673828128 0.003824999999999995 Q 1.2713940673828128 0 1.2821940673828127 0 Q 1.2929940673828129 0 1.302219067382813 0.003824999999999995 Q 1.3114440673828127 0.007650000000000004 1.3182690673828128 0.014475000000000002 Q 1.3250940673828129 0.0213 1.3289190673828128 0.030600000000000002 Q 1.3327440673828128 0.0399 1.3327440673828128 0.051000000000000004 Q 1.3327440673828128 0.0621 1.3289190673828128 0.0714 Q 1.3250940673828129 0.08070000000000001 1.3182690673828128 0.087525 Q 1.3114440673828127 0.09435 1.302219067382813 0.09817500000000001 Q 1.2929940673828129 0.10200000000000001 1.2821940673828127 0.10200000000000001 M 1.2851940673828128 0.0945 Q 1.2943440673828128 0.0945 1.3012440673828127 0.0897 Q 1.3081440673828129 0.0849 1.3120440673828129 0.0762 Q 1.3159440673828129 0.0675 1.3159440673828129 0.055650000000000005 Q 1.3159440673828129 0.0411 1.3111440673828128 0.030225000000000002 Q 1.3063440673828128 0.019349999999999992 1.2980940673828127 0.01335 Q 1.2898440673828129 0.007349999999999995 1.2797940673828128 0.007349999999999995 Q 1.2706440673828128 0.007349999999999995 1.2635940673828128 0.012075000000000002 Q 1.2565440673828128 0.016799999999999995 1.2525690673828127 0.025499999999999995 Q 1.2485940673828129 0.034199999999999994 1.2485940673828129 0.04605 Q 1.2485940673828129 0.0606 1.2534690673828128 0.07155 Q 1.2583440673828128 0.0825 1.2666690673828127 0.08850000000000001 Q 1.2749940673828128 0.0945 1.2851940673828128 0.0945 M 1.4552865966796877 0.1005 L 1.4552865966796877 0.0981 L 1.4672865966796877 0.0921 L 1.4704365966796877 0.009899999999999992 L 1.4575365966796878 0.0039000000000000007 L 1.4575365966796878 0.0015000000000000013 L 1.4873865966796878 0.0015000000000000013 L 1.5209865966796878 0.07905000000000001 L 1.5544365966796878 0.0015000000000000013 L 1.5830865966796879 0.0015000000000000013 L 1.5830865966796879 0.0039000000000000007 L 1.5703365966796878 0.00945 L 1.5728865966796879 0.0921 L 1.5836865966796878 0.0981 L 1.5836865966796878 0.1005 L 1.5466365966796878 0.1005 L 1.5466365966796878 0.0981 L 1.5578865966796878 0.09225 L 1.5563865966796877 0.0189 L 1.5209865966796878 0.10125 L 1.5137865966796877 0.10125 L 1.4786865966796878 0.019799999999999998 L 1.4767365966796877 0.09225 L 1.4891865966796878 0.0981 L 1.4891865966796878 0.1005 L 1.4552865966796877 0.1005 M 1.7060892333984377 0.1005 L 1.7060892333984377 0.0981 L 1.7182392333984378 0.0921 L 1.7182392333984378 0.009899999999999992 L 1.7060892333984377 0.0039000000000000007 L 1.7060892333984377 0.0015000000000000013 L 1.7480892333984377 0.0015000000000000013 Q 1.7657892333984377 0.0015000000000000013 1.7765142333984378 0.007949999999999999 Q 1.7872392333984377 0.014399999999999996 1.7872392333984377 0.02835 Q 1.7872392333984377 0.036599999999999994 1.7816142333984377 0.042975 Q 1.7759892333984377 0.04935 1.7663892333984377 0.053025 Q 1.7567892333984378 0.0567 1.7444892333984379 0.0567 L 1.7339892333984377 0.0567 L 1.7339892333984377 0.0921 L 1.7477892333984377 0.0981 L 1.7477892333984377 0.1005 L 1.7060892333984377 0.1005 M 1.7339892333984377 0.009749999999999995 L 1.7339892333984377 0.04875 L 1.7453892333984378 0.04875 Q 1.7572392333984377 0.04875 1.7639892333984377 0.04335 Q 1.7707392333984378 0.03795 1.7707392333984378 0.029549999999999993 Q 1.7707392333984378 0.019049999999999997 1.7639142333984377 0.014399999999999996 Q 1.7570892333984378 0.009749999999999995 1.7443392333984378 0.009749999999999995 L 1.7339892333984377 0.009749999999999995 M 1.8920903320312503 0.1005 L 1.8920903320312503 0.0981 L 1.9015403320312503 0.09315000000000001 L 1.9400903320312504 0.0007500000000000007 L 1.9483403320312505 0.0007500000000000007 L 1.9864403320312505 0.0927 L 1.9964903320312504 0.0981 L 1.9964903320312504 0.1005 L 1.9568903320312503 0.1005 L 1.9568903320312503 0.0981 L 1.9700903320312504 0.09285 L 1.9589903320312503 0.06585 L 1.9228403320312504 0.06585 L 1.9118903320312504 0.093 L 1.9244903320312503 0.0981 L 1.9244903320312503 0.1005 L 1.8920903320312503 0.1005 M 1.9262903320312503 0.057600000000000005 L 1.9556903320312504 0.057600000000000005 L 1.9409903320312503 0.021449999999999997 L 1.9262903320312503 0.057600000000000005 M 2.1143875488281254 0.1005 L 2.1143875488281254 0.0981 L 2.1265375488281255 0.0921 L 2.1265375488281255 0.0102 L 2.1145375488281255 0.0039000000000000007 L 2.1145375488281255 0.0015000000000000013 L 2.1380875488281252 0.0015000000000000013 L 2.1955375488281255 0.07215 L 2.1955375488281255 0.009749999999999995 L 2.1800875488281255 0.0039000000000000007 L 2.1800875488281255 0.0015000000000000013 L 2.2180375488281254 0.0015000000000000013 L 2.2180375488281254 0.0039000000000000007 L 2.2060375488281254 0.009749999999999995 L 2.2060375488281254 0.10125 L 2.1995875488281253 0.10125 L 2.1370375488281255 0.02445 L 2.1370375488281255 0.09225 L 2.1524875488281254 0.0981 L 2.1524875488281254 0.1005 L 2.1143875488281254 0.1005 M 2.3651843261718755 0.1005 L 2.3651843261718755 0.0981 L 2.3786843261718755 0.0921 L 2.3786843261718755 0.0543 L 2.3455343261718755 0.009149999999999991 L 2.3360843261718753 0.0039000000000000007 L 2.3360843261718753 0.0015000000000000013 L 2.3747843261718757 0.0015000000000000013 L 2.3747843261718757 0.0039000000000000007 L 2.3638343261718755 0.009300000000000003 L 2.3638343261718755 0.009899999999999992 L 2.3903843261718754 0.04605 L 2.4143843261718754 0.010050000000000003 L 2.4143843261718754 0.00945 L 2.4032843261718755 0.0039000000000000007 L 2.4032843261718755 0.0015000000000000013 L 2.4356843261718755 0.0015000000000000013 L 2.4356843261718755 0.0039000000000000007 L 2.4259343261718755 0.008849999999999997 L 2.3942843261718756 0.054150000000000004 L 2.3942843261718756 0.0921 L 2.4077843261718757 0.0981 L 2.4077843261718757 0.1005 L 2.3651843261718755 0.1005 M 2.696382788085938 0.1005 L 2.696382788085938 0.0981 L 2.7085327880859382 0.0921 L 2.7085327880859382 0.0102 L 2.696532788085938 0.0039000000000000007 L 2.696532788085938 0.0015000000000000013 L 2.720082788085938 0.0015000000000000013 L 2.777532788085938 0.07215 L 2.777532788085938 0.009749999999999995 L 2.762082788085938 0.0039000000000000007 L 2.762082788085938 0.0015000000000000013 L 2.800032788085938 0.0015000000000000013 L 2.800032788085938 0.0039000000000000007 L 2.788032788085938 0.009749999999999995 L 2.788032788085938 0.10125 L 2.781582788085938 0.10125 L 2.719032788085938 0.02445 L 2.719032788085938 0.09225 L 2.734482788085938 0.0981 L 2.734482788085938 0.1005 L 2.696382788085938 0.1005 M 2.913580810546876 0.1005 L 2.913580810546876 0.0981 L 2.9230308105468756 0.09315000000000001 L 2.961580810546876 0.0007500000000000007 L 2.969830810546876 0.0007500000000000007 L 3.007930810546876 0.0927 L 3.017980810546876 0.0981 L 3.017980810546876 0.1005 L 2.978380810546876 0.1005 L 2.978380810546876 0.0981 L 2.9915808105468757 0.09285 L 2.980480810546876 0.06585 L 2.9443308105468757 0.06585 L 2.933380810546876 0.093 L 2.945980810546876 0.0981 L 2.945980810546876 0.1005 L 2.913580810546876 0.1005 M 2.9477808105468757 0.057600000000000005 L 2.9771808105468756 0.057600000000000005 L 2.9624808105468756 0.021449999999999997 L 2.9477808105468757 0.057600000000000005 M 3.1358780273437508 0.1005 L 3.1358780273437508 0.0981 L 3.1478780273437508 0.0921 L 3.151028027343751 0.009899999999999992 L 3.138128027343751 0.0039000000000000007 L 3.138128027343751 0.0015000000000000013 L 3.167978027343751 0.0015000000000000013 L 3.201578027343751 0.07905000000000001 L 3.2350280273437506 0.0015000000000000013 L 3.263678027343751 0.0015000000000000013 L 3.263678027343751 0.0039000000000000007 L 3.250928027343751 0.00945 L 3.2534780273437507 0.0921 L 3.264278027343751 0.0981 L 3.264278027343751 0.1005 L 3.2272280273437506 0.1005 L 3.2272280273437506 0.0981 L 3.238478027343751 0.09225 L 3.236978027343751 0.0189 L 3.201578027343751 0.10125 L 3.1943780273437508 0.10125 L 3.159278027343751 0.019799999999999998 L 3.157328027343751 0.09225 L 3.169778027343751 0.0981 L 3.169778027343751 0.1005 L 3.1358780273437508 0.1005 M 3.3866806640625007 0.1005 L 3.3866806640625007 0.0981 L 3.398830664062501 0.0921 L 3.398830664062501 0.009899999999999992 L 3.3866806640625007 0.0039000000000000007 L 3.3866806640625007 0.0015000000000000013 L 3.4619806640625006 0.0015000000000000013 L 3.4619806640625006 0.027300000000000005 L 3.459580664062501 0.027300000000000005 L 3.449830664062501 0.009749999999999995 L 3.414580664062501 0.009749999999999995 L 3.414580664062501 0.0453 L 3.4394806640625006 0.0453 L 3.4471306640625006 0.03269999999999999 L 3.4495306640625008 0.03269999999999999 L 3.4495306640625008 0.06585 L 3.4471306640625006 0.06585 L 3.4394806640625006 0.05355 L 3.414580664062501 0.05355 L 3.414580664062501 0.09225 L 3.453880664062501 0.09225 L 3.463780664062501 0.07245 L 3.4661806640625006 0.07245 L 3.4661806640625006 0.1005 L 3.3866806640625007 0.1005" fill="#000000" fill-rule="nonzero"></path></g><g></g></g><defs><clipPath id="SvgjsClipPath26151"><path d=" M -34.954159698158286 -39.54983028680274 h 73.38484954768376 v 39.614830286802736 h -73.38484954768376 Z"></path></clipPath><clipPath id="SvgjsClipPath26146e0cc42dc-5aa6-48f4-b6ca-b8d03d4d8d2a"><path d=" M -34.954159698158286 -39.54983028680274 L 38.43068984952547 -39.54983028680274 L 38.43068984952547 0.06499999999999773 L -34.954159698158286 0.06499999999999773 Z"></path></clipPath></defs></svg>