<svg xmlns="http://www.w3.org/2000/svg" version="1.1" xmlns:xlink="http://www.w3.org/1999/xlink" xmlns:svgjs="http://svgjs.dev/svgjs" viewBox="0 0 24.22133596130918 4.803811742064433"><g transform="matrix(0.6651107636082857,0,0,0.6651107636082857,7.981606819550098,1.9517140112455853)"><g transform="matrix(1,0,0,1,0,0)" clip-path="url(#SvgjsClipPath20681)"><g clip-path="url(#SvgjsClipPath20679ac781f83-b3c7-4c8d-bb17-fa597c10edef)"><path d=" M -2.957672323407689 -0.5156572167249824 L -1.2915784470442482 -0.5156572167249824 L -3.027112451175019 1.0874087959217151 L -4.69320632753846 1.0874087959217151 Z" fill="#ffffff" transform="matrix(1,0,0,1,0,0)" fill-rule="nonzero"></path></g><g clip-path="url(#SvgjsClipPath20679ac781f83-b3c7-4c8d-bb17-fa597c10edef)"><path d=" M -1.9410938763634413 0.26632620407828467 L -0.27500000000000036 0.26632620407828467 L -2.010534004130772 1.8693922167249823 L -3.676627880494213 1.8693922167249823 Z" fill="#3361e1" transform="matrix(1,0,0,1,0,0)" fill-rule="nonzero"></path></g></g><g><path d=" M 0.8102205 1.37394 Q 0.6647445000000001 1.37394 0.54048375 1.325448 Q 0.416223 1.276956 0.32530050000000005 1.18906425 Q 0.23437800000000003 1.1011724999999999 0.18285525000000002 0.9819629999999999 Q 0.13133250000000002 0.8627535 0.13133250000000002 0.7213184999999999 Q 0.13133250000000002 0.5657399999999998 0.18891675000000002 0.43440749999999984 Q 0.24650100000000003 0.30307499999999976 0.347526 0.2050807499999998 Q 0.44855100000000003 0.10708649999999986 0.5798835 0.05354324999999971 Q 0.7112160000000001 -2.220446049250313e-16 0.8607330000000001 -2.220446049250313e-16 Q 0.9678195 -2.220446049250313e-16 1.042578 0.012122999999999884 Q 1.1173365000000002 0.024245999999999768 1.17694125 0.04647149999999978 Q 1.2365460000000001 0.06869699999999979 1.29312 0.09698399999999974 L 1.3052430000000002 0.4364279999999998 L 1.272915 0.4364279999999998 L 1.127439 0.19396799999999992 Q 1.0486395000000002 0.14143499999999976 0.9920655 0.12122999999999973 Q 0.9354915 0.10102499999999992 0.8607330000000001 0.10102499999999992 Q 0.7112160000000001 0.10102499999999992 0.5940270000000001 0.1697219999999997 Q 0.47683800000000004 0.23841899999999971 0.4101615 0.3596489999999999 Q 0.34348500000000004 0.48087899999999983 0.34348500000000004 0.6364574999999999 Q 0.34348500000000004 0.8324459999999999 0.41420250000000003 0.9718604999999999 Q 0.48492 1.111275 0.60311925 1.18502325 Q 0.7213185000000001 1.2587715 0.8688150000000001 1.2587715 Q 0.9274095000000001 1.2587715 0.9849937500000001 1.25169975 Q 1.042578 1.2446279999999998 1.1011725 1.2244229999999998 L 1.1011725 0.8789174999999998 L 0.9213480000000001 0.7960769999999998 L 0.9213480000000001 0.7637489999999999 L 1.45476 0.7637489999999999 L 1.45476 0.7960769999999998 L 1.313325 0.8849789999999998 L 1.313325 1.204218 Q 1.25271 1.256751 1.1678490000000001 1.2941302499999998 Q 1.082988 1.3315095 0.9900450000000001 1.35272475 Q 0.8971020000000001 1.37394 0.8102205 1.37394 M 2.118160157167969 1.353735 L 2.118160157167969 1.321407 L 2.281820657167969 1.2405869999999999 L 2.281820657167969 0.13335299999999983 L 2.118160157167969 0.05253299999999972 L 2.118160157167969 0.020204999999999806 L 3.132451157167969 0.020204999999999806 L 3.132451157167969 0.3677309999999998 L 3.1001231571679693 0.3677309999999998 L 2.968790657167969 0.13133249999999985 L 2.493973157167969 0.13133249999999985 L 2.493973157167969 0.6101909999999998 L 2.829376157167969 0.6101909999999998 L 2.932421657167969 0.4404689999999999 L 2.9647496571679692 0.4404689999999999 L 2.9647496571679692 0.8869994999999999 L 2.932421657167969 0.8869994999999999 L 2.829376157167969 0.7213184999999999 L 2.493973157167969 0.7213184999999999 L 2.493973157167969 1.2426074999999999 L 3.023344157167969 1.2426074999999999 L 3.1566971571679687 0.9759014999999999 L 3.1890251571679693 0.9759014999999999 L 3.1890251571679693 1.353735 L 2.118160157167969 1.353735 M 3.8927988111621095 1.353735 L 3.8927988111621095 1.321407 L 4.05645931116211 1.2405869999999999 L 4.05645931116211 0.1373939999999998 L 3.8948193111621094 0.05253299999999972 L 3.8948193111621094 0.020204999999999806 L 4.2120378111621095 0.020204999999999806 L 4.98588931116211 0.9718604999999999 L 4.98588931116211 0.13133249999999985 L 4.777777811162109 0.05253299999999972 L 4.777777811162109 0.020204999999999806 L 5.288964311162109 0.020204999999999806 L 5.288964311162109 0.05253299999999972 L 5.12732431116211 0.13133249999999985 L 5.12732431116211 1.3638374999999998 L 5.04044281116211 1.3638374999999998 L 4.19789431116211 0.32934149999999973 L 4.19789431116211 1.2426074999999999 L 4.406005811162109 1.321407 L 4.406005811162109 1.353735 L 3.8927988111621095 1.353735 M 5.956388696601563 1.353735 L 5.956388696601563 1.321407 L 6.120049196601563 1.2405869999999999 L 6.120049196601563 0.13335299999999983 L 5.956388696601563 0.05253299999999972 L 5.956388696601563 0.020204999999999806 L 6.970679696601563 0.020204999999999806 L 6.970679696601563 0.3677309999999998 L 6.938351696601563 0.3677309999999998 L 6.807019196601563 0.13133249999999985 L 6.332201696601563 0.13133249999999985 L 6.332201696601563 0.6101909999999998 L 6.667604696601563 0.6101909999999998 L 6.770650196601563 0.4404689999999999 L 6.802978196601563 0.4404689999999999 L 6.802978196601563 0.8869994999999999 L 6.770650196601563 0.8869994999999999 L 6.667604696601563 0.7213184999999999 L 6.332201696601563 0.7213184999999999 L 6.332201696601563 1.2426074999999999 L 6.861572696601563 1.2426074999999999 L 6.9949256966015625 0.9759014999999999 L 7.027253696601563 0.9759014999999999 L 7.027253696601563 1.353735 L 5.956388696601563 1.353735 M 8.155332350595703 1.37394 Q 8.028040850595703 1.37394 7.938128600595704 1.349694 Q 7.848216350595704 1.325448 7.753252850595704 1.2789765 L 7.733047850595704 0.9455939999999998 L 7.765375850595704 0.9455939999999998 L 7.872462350595704 1.1658285 Q 7.943179850595704 1.2244229999999998 8.011876850595703 1.2506895 Q 8.080573850595703 1.276956 8.149270850595704 1.276956 Q 8.266459850595703 1.276956 8.334146600595703 1.216341 Q 8.401833350595703 1.1557259999999998 8.401833350595703 1.05066 Q 8.401833350595703 0.9678194999999998 8.364454100595704 0.9183172499999999 Q 8.327074850595704 0.8688149999999999 8.253326600595704 0.8294152499999998 Q 8.179578350595705 0.7900154999999999 8.072491850595704 0.7374824999999998 Q 7.9290363505957036 0.6687854999999998 7.852257350595704 0.5930167499999999 Q 7.775478350595704 0.5172479999999998 7.775478350595704 0.3798539999999998 Q 7.775478350595704 0.3071159999999997 7.810837100595704 0.23942924999999993 Q 7.846195850595704 0.1717424999999999 7.906810850595704 0.11819924999999976 Q 7.967425850595704 0.06465599999999982 8.042184350595704 0.03232799999999991 Q 8.116942850595704 -2.220446049250313e-16 8.197762850595703 -2.220446049250313e-16 Q 8.292726350595704 -2.220446049250313e-16 8.375566850595703 0.022225499999999787 Q 8.458407350595705 0.044450999999999796 8.539227350595704 0.08688149999999983 L 8.559432350595705 0.41016149999999985 L 8.527104350595703 0.41016149999999985 L 8.422038350595704 0.19396799999999992 Q 8.357382350595703 0.14345549999999974 8.304849350595704 0.12122999999999973 Q 8.252316350595704 0.09900449999999972 8.185639850595704 0.09900449999999972 Q 8.098758350595704 0.09900449999999972 8.041174100595704 0.15759899999999982 Q 7.983589850595704 0.21619349999999993 7.983589850595704 0.30509549999999974 Q 7.983589850595704 0.4040999999999998 8.045215100595703 0.4606739999999998 Q 8.106840350595704 0.5172479999999998 8.244234350595704 0.5819039999999999 Q 8.365464350595705 0.6404984999999999 8.445274100595704 0.6940417499999999 Q 8.525083850595705 0.7475849999999998 8.563473350595704 0.8142614999999999 Q 8.601862850595705 0.8809379999999999 8.601862850595705 0.9839834999999999 Q 8.601862850595705 1.0789469999999999 8.561452850595703 1.1516849999999998 Q 8.521042850595704 1.2244229999999998 8.454366350595704 1.27392525 Q 8.387689850595704 1.3234275 8.309900600595704 1.34868375 Q 8.232111350595703 1.37394 8.155332350595703 1.37394 M 9.291531480908205 1.353735 L 9.291531480908205 1.321407 L 9.457212480908204 1.2405869999999999 L 9.457212480908204 0.13335299999999983 L 9.291531480908205 0.05253299999999972 L 9.291531480908205 0.020204999999999806 L 9.831004980908205 0.020204999999999806 L 9.831004980908205 0.05253299999999972 L 9.667344480908204 0.13335299999999983 L 9.667344480908204 1.2405869999999999 L 9.831004980908205 1.321407 L 9.831004980908205 1.353735 L 9.291531480908205 1.353735 M 10.949027503798828 1.37394 Q 10.821736003798827 1.37394 10.731823753798828 1.349694 Q 10.641911503798829 1.325448 10.546948003798828 1.2789765 L 10.526743003798828 0.9455939999999998 L 10.55907100379883 0.9455939999999998 L 10.666157503798829 1.1658285 Q 10.73687500379883 1.2244229999999998 10.805572003798828 1.2506895 Q 10.874269003798828 1.276956 10.942966003798828 1.276956 Q 11.060155003798828 1.276956 11.127841753798828 1.216341 Q 11.195528503798828 1.1557259999999998 11.195528503798828 1.05066 Q 11.195528503798828 0.9678194999999998 11.158149253798829 0.9183172499999999 Q 11.120770003798828 0.8688149999999999 11.047021753798829 0.8294152499999998 Q 10.97327350379883 0.7900154999999999 10.866187003798828 0.7374824999999998 Q 10.722731503798828 0.6687854999999998 10.645952503798828 0.5930167499999999 Q 10.569173503798828 0.5172479999999998 10.569173503798828 0.3798539999999998 Q 10.569173503798828 0.3071159999999997 10.604532253798828 0.23942924999999993 Q 10.639891003798828 0.1717424999999999 10.700506003798829 0.11819924999999976 Q 10.761121003798829 0.06465599999999982 10.835879503798829 0.03232799999999991 Q 10.910638003798828 -2.220446049250313e-16 10.991458003798828 -2.220446049250313e-16 Q 11.086421503798828 -2.220446049250313e-16 11.169262003798828 0.022225499999999787 Q 11.25210250379883 0.044450999999999796 11.332922503798828 0.08688149999999983 L 11.353127503798829 0.41016149999999985 L 11.320799503798828 0.41016149999999985 L 11.215733503798829 0.19396799999999992 Q 11.151077503798827 0.14345549999999974 11.098544503798829 0.12122999999999973 Q 11.046011503798828 0.09900449999999972 10.979335003798829 0.09900449999999972 Q 10.892453503798828 0.09900449999999972 10.834869253798828 0.15759899999999982 Q 10.777285003798829 0.21619349999999993 10.777285003798829 0.30509549999999974 Q 10.777285003798829 0.4040999999999998 10.838910253798828 0.4606739999999998 Q 10.900535503798828 0.5172479999999998 11.037929503798829 0.5819039999999999 Q 11.15915950379883 0.6404984999999999 11.238969253798828 0.6940417499999999 Q 11.318779003798829 0.7475849999999998 11.357168503798828 0.8142614999999999 Q 11.395558003798829 0.8809379999999999 11.395558003798829 0.9839834999999999 Q 11.395558003798829 1.0789469999999999 11.355148003798828 1.1516849999999998 Q 11.314738003798828 1.2244229999999998 11.248061503798828 1.27392525 Q 11.181385003798828 1.3234275 11.103595753798828 1.34868375 Q 11.025806503798828 1.37394 10.949027503798828 1.37394 M 12.772177889238282 1.37394 Q 12.626701889238282 1.37394 12.502441139238282 1.32241725 Q 12.378180389238283 1.2708944999999998 12.286247639238283 1.1789617499999998 Q 12.194314889238283 1.0870289999999998 12.143802389238282 0.9617579999999999 Q 12.093289889238282 0.8364869999999999 12.093289889238282 0.6869699999999999 Q 12.093289889238282 0.5374529999999998 12.143802389238282 0.4121819999999998 Q 12.194314889238283 0.2869109999999999 12.286247639238283 0.1949782499999999 Q 12.378180389238283 0.1030454999999999 12.502441139238282 0.05152274999999973 Q 12.626701889238282 -2.220446049250313e-16 12.772177889238282 -2.220446049250313e-16 Q 12.917653889238283 -2.220446049250313e-16 13.041914639238282 0.05152274999999973 Q 13.166175389238283 0.1030454999999999 13.258108139238283 0.1949782499999999 Q 13.350040889238283 0.2869109999999999 13.401563639238283 0.4121819999999998 Q 13.453086389238283 0.5374529999999998 13.453086389238283 0.6869699999999999 Q 13.453086389238283 0.8364869999999999 13.401563639238283 0.9617579999999999 Q 13.350040889238283 1.0870289999999998 13.258108139238283 1.1789617499999998 Q 13.166175389238283 1.2708944999999998 13.041914639238282 1.32241725 Q 12.917653889238283 1.37394 12.772177889238282 1.37394 M 12.812587889238282 1.2729149999999998 Q 12.935838389238283 1.2729149999999998 13.028781389238283 1.208259 Q 13.121724389238283 1.143603 13.174257389238283 1.026414 Q 13.226790389238282 0.909225 13.226790389238282 0.7496054999999998 Q 13.226790389238282 0.5536169999999998 13.162134389238282 0.4071307499999999 Q 13.097478389238283 0.2606444999999997 12.986350889238283 0.17982449999999983 Q 12.875223389238283 0.09900449999999972 12.739849889238283 0.09900449999999972 Q 12.616599389238283 0.09900449999999972 12.521635889238283 0.16265024999999977 Q 12.426672389238282 0.22629599999999983 12.373129139238282 0.3434849999999998 Q 12.319585889238283 0.4606739999999998 12.319585889238283 0.6202934999999998 Q 12.319585889238283 0.8162819999999998 12.385252139238283 0.9637784999999999 Q 12.450918389238282 1.111275 12.563056139238283 1.192095 Q 12.675193889238283 1.2729149999999998 12.812587889238282 1.2729149999999998 M 14.156823540058596 1.353735 L 14.156823540058596 1.321407 L 14.320484040058595 1.2405869999999999 L 14.320484040058595 0.13335299999999983 L 14.156823540058596 0.05253299999999972 L 14.156823540058596 0.020204999999999806 L 15.150909540058596 0.020204999999999806 L 15.150909540058596 0.3677309999999998 L 15.118581540058596 0.3677309999999998 L 14.991290040058596 0.13133249999999985 L 14.532636540058595 0.13133249999999985 L 14.532636540058595 0.6122114999999998 L 14.847834540058596 0.6122114999999998 L 14.950880040058596 0.44248949999999987 L 14.983208040058596 0.44248949999999987 L 14.983208040058596 0.8849789999999998 L 14.950880040058596 0.8849789999999998 L 14.847834540058596 0.7192979999999999 L 14.532636540058595 0.7192979999999999 L 14.532636540058595 1.2405869999999999 L 14.718522540058595 1.321407 L 14.718522540058595 1.353735 L 14.156823540058596 1.353735 M 16.113275623740236 1.353735 L 16.113275623740236 1.321407 L 16.317346123740236 1.2405869999999999 L 16.317346123740236 0.13133249999999985 L 15.998107123740237 0.13133249999999985 L 15.854651623740237 0.4364279999999998 L 15.822323623740237 0.4364279999999998 L 15.822323623740237 0.020204999999999806 L 17.022500623740235 0.020204999999999806 L 17.022500623740235 0.4364279999999998 L 16.990172623740236 0.4364279999999998 L 16.848737623740238 0.13133249999999985 L 16.527478123740238 0.13133249999999985 L 16.527478123740238 1.2405869999999999 L 16.733569123740235 1.321407 L 16.733569123740235 1.353735 L 16.113275623740236 1.353735" fill="#ffffff" fill-rule="nonzero"></path></g><g></g></g><defs><clipPath id="SvgjsClipPath20681"><path d=" M -4.69320632753846 -0.5156572167249824 h 4.41820632753846 v 2.385049433449965 h -4.41820632753846 Z"></path></clipPath><clipPath id="SvgjsClipPath20679ac781f83-b3c7-4c8d-bb17-fa597c10edef"><path d=" M -4.69320632753846 -0.5156572167249824 L -0.27500000000000036 -0.5156572167249824 L -0.27500000000000036 1.8693922167249823 L -4.69320632753846 1.8693922167249823 Z"></path></clipPath></defs></svg>